<svg width="16" height="16" viewBox="0 0 16 16" fill="none" xmlns="http://www.w3.org/2000/svg">
<path d="M12.0003 1.33325H10.0003C9.11627 1.33325 8.26842 1.68444 7.6433 2.30956C7.01818 2.93468 6.66699 3.78253 6.66699 4.66659V6.66658H4.66699V9.33325H6.66699V14.6666H9.33366V9.33325H11.3337L12.0003 6.66658H9.33366V4.66659C9.33366 4.48977 9.4039 4.3202 9.52892 4.19518C9.65395 4.07016 9.82351 3.99992 10.0003 3.99992H12.0003V1.33325Z" stroke="white" stroke-linecap="round" stroke-linejoin="round"/>
<path d="M7.5 2.5C8.66667 2.16667 11.1 1.5 11.5 1.5L12 2.5L11.5 4H9.5V6.5L11 7L11.5 9L9.5 9.5L8.5 14.5H7V9.5L5.5 9L5 7H6.5V6L7.5 2.5Z" fill="white"/>
</svg>
