<svg width="28" height="28" viewBox="0 0 28 28" fill="none" xmlns="http://www.w3.org/2000/svg">
<g clip-path="url(#clip0_17_853)">
<path d="M25.4236 21.8208C25.0002 22.799 24.499 23.6995 23.9182 24.5273C23.1267 25.6559 22.4785 26.4372 21.979 26.871C21.2047 27.583 20.3751 27.9477 19.4868 27.9685C18.849 27.9685 18.0799 27.787 17.1846 27.4189C16.2864 27.0524 15.461 26.871 14.7062 26.871C13.9146 26.871 13.0657 27.0524 12.1576 27.4189C11.2481 27.787 10.5155 27.9788 9.95533 27.9979C9.10343 28.0341 8.2543 27.6591 7.40672 26.871C6.86575 26.3991 6.18911 25.5903 5.37852 24.4444C4.50881 23.2207 3.7938 21.8017 3.23365 20.184C2.63374 18.4367 2.33301 16.7446 2.33301 15.1065C2.33301 13.23 2.73848 11.6116 3.55062 10.2554C4.1889 9.166 5.03803 8.30666 6.10079 7.67582C7.16354 7.04497 8.31185 6.7235 9.54848 6.70294C10.2251 6.70294 11.1125 6.91224 12.2151 7.32358C13.3147 7.73631 14.0207 7.94561 14.3303 7.94561C14.5617 7.94561 15.346 7.70088 16.6756 7.21297C17.933 6.76049 18.9942 6.57314 19.8636 6.64694C22.2193 6.83706 23.9891 7.76569 25.1661 9.43873C23.0593 10.7153 22.0171 12.5033 22.0378 14.7969C22.0568 16.5835 22.7049 18.0702 23.9787 19.2507C24.556 19.7986 25.2007 20.222 25.9179 20.5228C25.7624 20.9739 25.5982 21.4059 25.4236 21.8208ZM20.0208 0.560404C20.0208 1.96072 19.5092 3.2682 18.4895 4.47838C17.2589 5.91706 15.7705 6.74839 14.1564 6.61721C14.1358 6.44921 14.1239 6.27241 14.1239 6.08661C14.1239 4.7423 14.7091 3.30363 15.7484 2.12732C16.2672 1.53173 16.9271 1.03651 17.7273 0.641462C18.5258 0.252308 19.2811 0.037098 19.9915 0.000244141C20.0122 0.187445 20.0208 0.374676 20.0208 0.560404Z" fill="white"/>
</g>
<defs>
<clipPath id="clip0_17_853">
<rect width="28" height="28" fill="white"/>
</clipPath>
</defs>
</svg>
