<svg width="16" height="12" viewBox="0 0 16 12" fill="none" xmlns="http://www.w3.org/2000/svg">
<path d="M15.8406 2.79995C15.8406 2.79995 15.6844 1.69683 15.2031 1.21245C14.5938 0.574951 13.9125 0.571826 13.6 0.534326C11.3625 0.371826 8.00313 0.371826 8.00313 0.371826H7.99687C7.99687 0.371826 4.6375 0.371826 2.4 0.534326C2.0875 0.571826 1.40625 0.574951 0.796875 1.21245C0.315625 1.69683 0.1625 2.79995 0.1625 2.79995C0.1625 2.79995 0 4.09683 0 5.39058V6.60308C0 7.89683 0.159375 9.1937 0.159375 9.1937C0.159375 9.1937 0.315625 10.2968 0.79375 10.7812C1.40313 11.4187 2.20313 11.3968 2.55938 11.4656C3.84063 11.5875 8 11.625 8 11.625C8 11.625 11.3625 11.6187 13.6 11.4593C13.9125 11.4218 14.5938 11.4187 15.2031 10.7812C15.6844 10.2968 15.8406 9.1937 15.8406 9.1937C15.8406 9.1937 16 7.89995 16 6.60308V5.39058C16 4.09683 15.8406 2.79995 15.8406 2.79995ZM6.34688 8.07495V3.57808L10.6687 5.83433L6.34688 8.07495Z" fill="white"/>
</svg>
